<?xml version="1.0" encoding="utf-8"?>
<!-- Generator: Adobe Illustrator 19.2.1, SVG Export Plug-In . SVG Version: 6.00 Build 0)  -->
<svg version="1.1" id="Layer_1" xmlns="http://www.w3.org/2000/svg" xmlns:xlink="http://www.w3.org/1999/xlink" x="0px" y="0px"
	 viewBox="0 0 220 45" style="enable-background:new 0 0 220 45;" xml:space="preserve">
<style type="text/css">
	.st0{fill:#09C6A2;stroke:#09C6A2;stroke-miterlimit:10;}
</style>
<g>
	<g>
		<path class="st0" d="M93.5,17.9H78.7v-4.1H97v8.8c0,1.4-0.2,2.6-0.5,3.6c-0.3,1.1-0.8,2-1.4,2.7s-1.4,1.3-2.3,1.7
			s-1.9,0.6-3.1,0.6h-11V20.5h3.5V27h7.4c2.5,0,3.8-1.5,3.8-4.6L93.5,17.9L93.5,17.9z"/>
		<path class="st0" d="M118.3,31.2h-3.5v-6.8H103v6.8h-3.5v-8.8c0-1.4,0.2-2.6,0.5-3.6c0.3-1.1,0.8-2,1.4-2.7
			c0.6-0.7,1.4-1.3,2.3-1.7s1.9-0.6,3.1-0.6h11.6L118.3,31.2L118.3,31.2z M114.8,17.9h-6.4c-2.2,0-3.5,0.3-4.2,0.8
			c-0.3,0.3-0.5,0.6-0.7,0.9s-0.3,0.7-0.3,1h11.6V17.9z"/>
		<path class="st0" d="M140.7,31.2H137c-2-3.3-3.9-6-5.9-8.1c-1.9-2.1-3.8-3.6-5.7-4.4c-0.1-0.1-0.3-0.1-0.5-0.2s-0.3-0.1-0.5-0.2
			c0,0.6,0.1,1,0.1,1.2v11.7H121V13.8h3c1.2,0.4,2.3,1,3.4,1.7c1.1,0.7,2.2,1.5,3.3,2.4s2.1,1.9,3.1,3s1.9,2.2,2.8,3.4l0.6,0.8
			c0-0.5-0.1-0.9-0.1-1.1V13.8h3.5L140.7,31.2L140.7,31.2z"/>
		<path class="st0" d="M146.9,31.2h-3.5V13.8h3.5V31.2z"/>
		<path class="st0" d="M167.9,31.2h-18.4v-8.8c0-1.3,0.2-2.5,0.5-3.6s0.8-2,1.4-2.7c0.6-0.8,1.4-1.3,2.3-1.7c0.9-0.4,1.9-0.6,3-0.6
			h11.2v4.1h-11.1c-1.1,0-1.9,0.2-2.4,0.7c-0.6,0.5-0.9,1.1-1.1,2h12.4v3.9h-12.6v2.6H168L167.9,31.2L167.9,31.2z"/>
		<path class="st0" d="M173.6,13.8v13.3h7.5c1.9,0,3-0.9,3.5-2.6h3.7c-0.3,2.2-1.1,3.9-2.3,5.1c-1.2,1.1-2.8,1.7-4.8,1.7H170V13.8
			H173.6z"/>
		<path class="st0" d="M214.2,13.8l-10.9,13.4h5.5c1.4,0,2.3-0.9,2.5-2.7h3.4c-0.2,4.5-2.4,6.8-6.6,6.8h-12.6l11.1-13.5h-9.4v-4
			C197.2,13.8,214.2,13.8,214.2,13.8z"/>
	</g>
	<path class="st0" d="M30.6,33.3l-1.3-1.2l-0.9-0.8c0,0,0,0-0.1,0h-7.8h-2.6c-0.1,0-0.1,0-0.1-0.1v-2.9v-6.8v-0.1L17.3,21L10,14.1
		c-1.8-1.6-4.7-0.4-4.7,2V35c0,2.9,2.3,5.2,5.2,5.2h7.1h15c1.9,0,2.8-2.3,1.4-3.6l-2.6-2.5L30.6,33.3z"/>
	<path class="st0" d="M48.8,15.9V26c0,0.8-0.9,1.2-1.5,0.6l-1.9-1.8c-0.2-0.1-0.3-0.4-0.3-0.6l0,0v-5.5c0-7.6-6-13.8-13.6-14
		c-0.1,0-0.1,0-0.2,0h-7.4h-7.2l0,0c-2.4,0-3.5,2.9-1.8,4.5l1.8,1.7l1.6,1.5l0,0c1.6,1.5,3.7,2.3,5.9,2.2c0.1,0,0.1,0,0.2,0
		c5-0.1,9.2,4,9.2,9.1c0,0,0,0,0,0.1c0,1.9,0.7,3.8,2.2,5.1l2.3,2.2l0.7,0.7l8.2,7.8c0.4,0.4,1,0.6,1.6,0.6l0,0h6.9
		c2.7,0,4.9-2.2,4.9-4.9v-4.2V10.6c0-2.3-2.7-3.6-4.5-2.1l-6.1,5.1C49.2,14.1,48.8,15,48.8,15.9z"/>
</g>
</svg>
